# xmcd
#
# Track frame offsets: 
#        150
#        10655
#        21137
#        47975
#        62427
#        81182
#        92900
#        104577
#        114217
#        125322
#        136815
#        147762
#        170500
#
# Disc length: 2550 seconds
#
# Revision: 0
# Processed by: cddbd v1.4PL0 Copyright (c) Steve Scherf et al.
# Submitted via: ExactAudioCopy v0.90b4
#
DISCID=a309f40d
DTITLE=Johnny Winter - Electric Blues Man (2 of 2)
DYEAR=1997
DGENRE=Blues
TTITLE0=Gonna Miss Me When I'm Gone
TTITLE1=Sloppy Drunk Blues
TTITLE2=Goin' Down Slow
TTITLE3=Low Down Gal of Mine
TTITLE4=Take My Choice
TTITLE5=Gangster of Love
TTITLE6=Eternally
TTITLE7=Blue Suede Shoes
TTITLE8=Ballad of Bertha Glutz
TTITLE9=Livin' in the Blues
TTITLE10=Raindrops in My Heart
TTITLE11=Black Cat Bone
TTITLE12=Talk to Your Daughter
EXTD=
EXTT0=
EXTT1=
EXTT2=
EXTT3=
EXTT4=
EXTT5=
EXTT6=
EXTT7=
EXTT8=
EXTT9=
EXTT10=
EXTT11=
EXTT12=
PLAYORDER=
